<svg id="svg" version="1.1" xmlns="http://www.w3.org/2000/svg" xmlns:xlink="http://www.w3.org/1999/xlink" width="400" height="88.75517111696125" viewBox="0, 0, 400,88.75517111696125"><g id="svgg"><path id="path0" d="M113.833 43.921 L 113.833 70.360 126.875 70.279 C 134.400 70.232,140.269 70.128,140.750 70.033 C 145.155 69.165,148.053 68.011,150.007 66.348 C 150.368 66.041,150.769 65.705,150.898 65.603 C 151.168 65.389,152.667 63.544,152.667 63.426 C 152.667 63.383,152.901 62.951,153.187 62.466 C 153.474 61.980,153.719 61.508,153.734 61.417 C 153.748 61.325,153.810 61.170,153.871 61.072 C 153.932 60.974,154.024 60.711,154.074 60.488 C 154.124 60.266,154.306 59.473,154.478 58.727 C 155.420 54.643,154.886 50.640,153.043 47.960 C 152.744 47.526,152.500 47.111,152.500 47.038 C 152.500 46.881,150.845 45.411,150.072 44.880 C 149.588 44.548,148.252 43.900,147.188 43.481 C 146.805 43.331,146.816 43.313,147.521 42.949 C 148.411 42.489,149.006 42.138,149.269 41.917 C 149.378 41.825,149.801 41.472,150.207 41.133 C 152.813 38.960,154.511 33.384,153.673 29.750 C 153.589 29.383,153.480 28.896,153.432 28.667 C 152.394 23.743,147.412 19.245,142.083 18.422 C 141.900 18.394,140.887 18.197,139.833 17.985 C 137.954 17.607,137.679 17.598,125.875 17.540 L 113.833 17.482 113.833 43.921 M136.168 27.762 C 139.584 28.539,140.913 30.263,140.865 33.858 C 140.809 38.077,138.705 39.286,131.125 39.451 L 126.833 39.545 126.833 33.522 L 126.833 27.500 130.925 27.500 C 134.044 27.500,135.291 27.562,136.168 27.762 M162.336 39.593 C 162.334 39.782,162.227 40.082,162.097 40.259 C 161.930 40.487,161.912 40.644,162.034 40.791 C 162.162 40.945,162.131 41.000,161.919 41.000 C 161.727 41.000,161.664 41.086,161.730 41.259 C 161.787 41.407,161.759 41.474,161.665 41.415 C 161.574 41.359,161.500 41.473,161.500 41.667 C 161.500 41.861,161.436 41.980,161.357 41.931 C 161.278 41.882,161.235 42.037,161.261 42.274 C 161.316 42.774,161.186 43.198,161.010 43.090 C 160.944 43.048,160.881 43.105,160.872 43.216 C 160.848 43.486,160.697 44.396,160.658 44.500 C 160.641 44.546,160.637 44.643,160.649 44.715 C 160.661 44.788,160.600 44.979,160.514 45.141 C 160.424 45.308,160.418 45.534,160.500 45.666 C 160.593 45.817,160.548 45.967,160.369 46.097 C 160.128 46.274,160.124 46.332,160.340 46.597 C 160.530 46.832,160.533 46.867,160.353 46.759 C 160.194 46.663,160.149 46.691,160.206 46.852 C 160.251 46.979,160.216 47.224,160.128 47.395 C 160.015 47.614,160.021 47.673,160.150 47.594 C 160.252 47.530,160.333 47.591,160.333 47.730 C 160.333 47.868,160.268 48.021,160.188 48.070 C 160.107 48.120,160.031 48.349,160.017 48.580 C 160.004 48.811,159.987 49.094,159.980 49.208 C 159.909 50.318,160.066 54.000,160.184 54.000 C 160.268 54.000,160.305 54.256,160.266 54.570 C 160.227 54.883,160.244 55.188,160.303 55.247 C 160.362 55.306,160.423 55.631,160.440 55.969 C 160.456 56.307,160.486 56.602,160.506 56.625 C 160.525 56.648,160.557 56.723,160.576 56.792 C 160.595 56.860,160.671 57.142,160.745 57.417 C 160.819 57.692,160.953 58.010,161.043 58.125 C 161.158 58.270,161.138 58.334,160.979 58.336 C 160.799 58.338,160.804 58.373,161.000 58.500 C 161.137 58.589,161.175 58.665,161.083 58.669 C 160.992 58.673,161.045 58.752,161.201 58.843 C 161.358 58.934,161.444 59.119,161.392 59.254 C 161.340 59.389,161.378 59.500,161.477 59.500 C 161.576 59.500,161.615 59.608,161.564 59.740 C 161.512 59.875,161.620 60.072,161.811 60.191 C 162.084 60.362,162.111 60.451,161.950 60.650 C 161.793 60.844,161.795 60.871,161.958 60.772 C 162.081 60.699,162.177 60.737,162.192 60.865 C 162.206 60.985,162.228 61.196,162.242 61.333 C 162.255 61.471,162.365 61.562,162.487 61.535 C 162.628 61.504,162.671 61.582,162.606 61.752 C 162.547 61.906,162.573 61.974,162.669 61.915 C 162.775 61.850,162.829 57.801,162.820 50.532 C 162.813 44.327,162.766 39.352,162.717 39.477 C 162.640 39.669,162.604 39.669,162.482 39.477 C 162.374 39.307,162.338 39.336,162.336 39.593 M138.609 48.516 C 142.695 50.239,143.352 56.639,139.699 59.131 C 138.203 60.152,136.951 60.333,131.413 60.333 L 126.833 60.333 126.833 54.156 L 126.833 47.979 132.208 48.031 C 137.565 48.083,137.587 48.085,138.609 48.516 " stroke="none" fill="#bc7cfc" fill-rule="evenodd"></path><path id="path1" d="M33.962 12.779 C 33.387 13.085,32.654 13.460,32.333 13.611 C 32.012 13.763,31.225 14.152,30.583 14.476 C 29.942 14.801,29.236 15.145,29.015 15.242 C 28.795 15.338,28.232 15.625,27.765 15.880 C 27.299 16.134,26.579 16.494,26.167 16.679 C 25.754 16.864,25.304 17.074,25.167 17.146 C 24.663 17.409,20.590 19.472,20.167 19.678 C 20.029 19.745,19.504 20.003,19.000 20.252 C 18.496 20.501,17.633 20.923,17.083 21.192 C 16.533 21.460,15.858 21.798,15.583 21.943 C 15.139 22.177,13.866 22.812,12.667 23.398 C 12.438 23.510,11.875 23.798,11.417 24.038 C 10.958 24.278,9.366 25.078,7.878 25.817 C 4.467 27.510,4.554 27.453,4.162 28.261 C 3.102 30.446,3.687 31.182,8.333 33.506 C 10.213 34.446,11.938 35.315,12.167 35.438 C 15.751 37.363,35.423 47.015,35.918 47.092 C 36.524 47.187,36.861 47.057,39.543 45.701 C 41.169 44.879,42.500 44.232,42.500 44.263 C 42.500 44.295,43.006 44.053,43.625 43.726 C 44.244 43.399,45.575 42.722,46.583 42.223 C 47.592 41.723,48.529 41.255,48.667 41.183 C 49.227 40.888,52.145 39.434,53.000 39.023 C 53.504 38.781,53.954 38.542,54.000 38.491 C 54.046 38.440,54.346 38.292,54.667 38.162 C 54.987 38.033,55.767 37.643,56.398 37.297 C 57.030 36.950,57.578 36.667,57.617 36.667 C 57.738 36.667,62.681 34.185,63.231 33.848 C 63.516 33.673,63.900 33.504,64.083 33.473 C 64.267 33.442,64.454 33.375,64.500 33.325 C 64.546 33.274,65.221 32.910,66.000 32.516 C 68.005 31.503,68.348 31.072,68.321 29.605 C 68.288 27.817,68.206 27.750,62.641 24.988 C 60.226 23.789,57.987 22.660,57.667 22.477 C 57.346 22.295,56.746 21.996,56.333 21.814 C 55.921 21.631,55.283 21.324,54.917 21.133 C 53.823 20.560,52.589 19.937,52.500 19.912 C 52.235 19.836,51.632 19.533,50.750 19.034 C 50.200 18.722,49.637 18.444,49.500 18.415 C 49.362 18.386,48.703 18.060,48.035 17.690 C 47.367 17.321,46.674 16.972,46.494 16.915 C 46.314 16.858,45.585 16.489,44.875 16.096 C 44.165 15.704,43.396 15.323,43.167 15.250 C 42.938 15.177,42.487 14.960,42.167 14.767 C 41.846 14.574,41.321 14.292,41.000 14.139 C 40.679 13.987,39.643 13.477,38.697 13.006 C 36.535 11.930,35.634 11.886,33.962 12.779 M39.697 19.679 C 43.602 21.616,43.916 21.776,45.208 22.485 C 45.735 22.774,46.167 22.961,46.167 22.901 C 46.167 22.841,46.260 22.869,46.375 22.963 C 46.490 23.056,47.896 23.784,49.500 24.581 C 52.976 26.307,52.992 26.315,54.199 26.978 C 54.721 27.265,55.220 27.500,55.306 27.500 C 55.393 27.500,56.064 27.837,56.798 28.250 C 57.531 28.662,58.233 29.002,58.357 29.005 C 59.482 29.032,59.255 29.632,57.862 30.310 C 57.434 30.519,56.783 30.842,56.417 31.029 C 54.380 32.068,53.128 32.692,52.793 32.836 C 52.586 32.926,52.304 33.072,52.167 33.161 C 52.029 33.250,51.392 33.559,50.750 33.849 C 50.108 34.138,49.546 34.431,49.500 34.499 C 49.389 34.663,48.000 35.364,48.000 35.255 C 48.000 35.209,47.569 35.409,47.042 35.701 C 46.515 35.993,43.831 37.364,41.079 38.748 L 36.074 41.264 34.711 40.590 C 33.961 40.220,33.126 39.804,32.855 39.667 C 31.489 38.974,28.042 37.210,27.750 37.055 C 27.567 36.957,27.079 36.720,26.667 36.528 C 26.254 36.336,25.504 35.961,25.000 35.694 C 24.496 35.426,21.549 33.945,18.452 32.401 C 12.861 29.615,12.823 29.592,13.202 29.301 C 13.412 29.140,13.650 29.006,13.731 29.004 C 13.840 29.001,26.472 22.732,28.750 21.550 C 31.822 19.956,35.814 18.013,36.031 18.008 C 36.185 18.003,37.835 18.756,39.697 19.679 M5.767 41.669 C 4.038 42.200,3.264 44.494,4.327 45.939 C 4.730 46.487,32.619 60.811,33.833 61.094 C 33.879 61.104,34.284 61.284,34.733 61.492 C 36.183 62.165,38.577 61.248,46.636 56.933 C 47.215 56.623,48.115 56.171,48.636 55.929 C 49.157 55.687,49.696 55.417,49.833 55.330 C 49.971 55.243,50.683 54.884,51.417 54.533 C 52.150 54.181,52.900 53.813,53.083 53.713 C 53.267 53.614,53.904 53.300,54.500 53.017 C 55.096 52.733,55.771 52.391,56.000 52.258 C 56.229 52.124,57.354 51.554,58.500 50.991 C 61.787 49.376,66.936 46.747,67.371 46.462 C 68.888 45.468,68.392 42.495,66.581 41.738 C 65.509 41.290,62.561 42.467,56.399 45.805 C 56.226 45.899,55.708 46.153,55.250 46.370 C 54.792 46.587,54.220 46.895,53.979 47.055 C 53.738 47.214,53.401 47.376,53.229 47.413 C 52.967 47.471,51.967 47.961,50.409 48.796 C 50.230 48.892,49.633 49.182,49.083 49.442 C 48.533 49.701,48.046 49.954,48.000 50.003 C 47.954 50.052,47.579 50.239,47.167 50.418 C 46.754 50.597,45.922 51.026,45.317 51.372 C 44.712 51.717,44.127 52.000,44.017 52.000 C 43.908 52.000,43.233 52.337,42.518 52.750 C 41.802 53.163,41.139 53.500,41.043 53.500 C 40.948 53.500,40.262 53.842,39.519 54.259 C 38.776 54.677,38.037 55.045,37.876 55.078 C 37.715 55.110,37.244 55.328,36.830 55.561 C 36.147 55.946,36.038 55.964,35.663 55.750 C 35.436 55.620,35.063 55.431,34.833 55.330 C 34.474 55.171,30.583 53.228,28.833 52.334 C 28.512 52.170,27.837 51.841,27.333 51.601 C 26.829 51.362,26.154 51.022,25.833 50.846 C 25.512 50.669,24.800 50.319,24.250 50.067 C 23.700 49.816,23.129 49.508,22.981 49.383 C 22.833 49.258,22.550 49.125,22.351 49.087 C 21.934 49.007,20.031 48.017,19.700 47.708 C 19.577 47.594,19.370 47.500,19.241 47.500 C 18.972 47.500,16.969 46.494,16.817 46.283 C 16.762 46.207,16.607 46.128,16.473 46.109 C 16.250 46.076,14.085 45.032,13.500 44.675 C 13.362 44.591,12.650 44.236,11.917 43.886 C 11.183 43.536,10.558 43.194,10.528 43.125 C 10.497 43.056,10.360 43.000,10.223 43.000 C 10.086 43.000,9.431 42.709,8.767 42.353 C 7.457 41.651,6.522 41.438,5.767 41.669 M5.667 56.548 C 5.346 56.668,5.016 56.773,4.934 56.783 C 4.050 56.887,3.546 59.360,4.179 60.487 C 4.595 61.227,4.443 61.129,7.750 62.789 C 9.217 63.525,11.467 64.657,12.750 65.303 C 14.033 65.949,15.496 66.679,16.000 66.926 C 16.504 67.172,17.031 67.430,17.171 67.498 C 17.503 67.661,19.835 68.828,20.197 69.012 C 20.351 69.091,21.026 69.427,21.697 69.759 C 22.368 70.091,23.292 70.558,23.750 70.797 C 25.206 71.556,25.401 71.652,26.167 71.986 C 26.579 72.165,27.179 72.462,27.500 72.644 C 27.821 72.826,28.791 73.327,29.656 73.756 C 30.521 74.185,31.346 74.594,31.489 74.666 C 31.633 74.737,32.500 75.169,33.417 75.626 C 35.791 76.809,36.517 76.817,38.634 75.687 C 39.487 75.232,40.404 74.783,40.673 74.690 C 40.941 74.596,41.616 74.252,42.173 73.926 C 42.729 73.600,43.237 73.333,43.301 73.333 C 43.364 73.333,48.273 70.897,54.209 67.919 C 60.145 64.941,65.020 62.510,65.043 62.517 C 65.123 62.544,66.085 62.088,66.167 61.985 C 66.212 61.927,66.475 61.764,66.750 61.622 C 67.378 61.299,67.898 60.825,67.980 60.500 C 68.014 60.362,68.115 59.976,68.204 59.641 C 68.562 58.291,67.804 56.906,66.500 56.529 C 66.034 56.395,64.315 56.474,64.115 56.640 C 64.006 56.730,61.854 57.829,59.333 59.083 C 56.813 60.336,54.637 61.427,54.500 61.508 C 54.362 61.589,53.762 61.889,53.167 62.174 C 52.571 62.460,51.708 62.891,51.250 63.133 C 50.792 63.375,50.042 63.756,49.583 63.978 C 49.125 64.201,48.563 64.481,48.333 64.600 C 47.070 65.256,45.826 65.833,45.674 65.833 C 45.578 65.833,45.500 65.913,45.500 66.010 C 45.500 66.107,45.431 66.144,45.348 66.092 C 45.264 66.040,45.170 66.055,45.139 66.124 C 45.085 66.247,42.751 67.506,42.584 67.502 C 42.538 67.501,42.430 67.500,42.345 67.500 C 42.260 67.500,42.086 67.604,41.958 67.732 C 41.831 67.860,40.457 68.597,38.905 69.370 L 36.083 70.776 25.417 65.422 C 19.550 62.477,14.600 59.986,14.417 59.886 C 14.054 59.688,12.808 59.054,11.750 58.528 C 11.050 58.181,9.770 57.536,8.491 56.888 C 7.529 56.400,6.422 56.266,5.667 56.548 " stroke="none" fill="#d384fc" fill-rule="evenodd"></path><path id="path2" d="M176.000 30.447 C 172.953 30.947,172.430 31.080,170.834 31.764 C 168.298 32.849,165.145 35.061,165.445 35.545 C 165.503 35.640,165.478 35.673,165.388 35.617 C 165.211 35.508,164.167 36.528,164.167 36.811 C 164.167 36.906,164.069 37.043,163.949 37.117 C 163.526 37.376,162.629 38.804,162.757 39.012 C 162.839 39.145,162.816 39.176,162.692 39.099 C 162.568 39.022,162.501 39.116,162.503 39.365 C 162.505 39.675,162.537 39.701,162.667 39.500 C 162.772 39.337,162.829 43.186,162.831 50.532 C 162.832 57.597,162.773 61.851,162.673 61.913 C 162.583 61.968,162.712 62.296,162.964 62.654 C 163.213 63.007,163.473 63.262,163.542 63.221 C 163.610 63.180,163.667 63.268,163.667 63.417 C 163.667 63.565,163.741 63.641,163.831 63.585 C 163.925 63.527,163.954 63.592,163.900 63.734 C 163.793 64.012,166.936 67.226,167.171 67.080 C 167.245 67.035,167.330 67.062,167.361 67.140 C 167.419 67.288,169.392 68.667,169.546 68.667 C 169.594 68.667,170.272 68.968,171.052 69.337 C 178.385 72.806,189.360 70.988,194.715 65.417 C 195.992 64.088,196.009 64.243,194.372 62.351 C 193.572 61.426,192.744 60.463,192.533 60.210 C 192.323 59.957,191.694 59.207,191.135 58.542 L 190.120 57.335 188.933 58.459 C 187.807 59.526,186.529 60.291,184.750 60.962 C 183.866 61.296,179.405 61.392,178.311 61.100 C 175.774 60.425,173.273 57.775,172.751 55.209 L 172.641 54.669 184.695 54.626 L 196.750 54.583 196.802 51.667 C 196.955 42.996,194.648 36.869,189.992 33.579 C 189.859 33.485,189.490 33.224,189.172 33.000 C 186.707 31.261,182.985 30.317,178.750 30.357 C 177.467 30.369,176.229 30.409,176.000 30.447 M222.285 30.517 C 221.801 30.646,220.676 30.842,219.980 30.917 C 219.439 30.975,218.333 31.488,218.333 31.680 C 218.333 31.759,218.209 31.775,218.056 31.716 C 217.855 31.639,217.816 31.670,217.915 31.831 C 218.002 31.972,217.987 32.012,217.872 31.940 C 217.524 31.725,216.229 32.484,215.000 33.623 C 214.679 33.920,214.356 34.164,214.282 34.165 C 214.208 34.166,214.173 34.223,214.204 34.292 C 214.235 34.360,214.015 34.677,213.714 34.994 L 213.167 35.572 213.153 34.911 C 213.145 34.547,213.115 34.063,213.087 33.833 C 213.058 33.604,213.015 32.967,212.991 32.417 C 212.967 31.867,212.914 31.323,212.873 31.208 C 212.815 31.047,211.500 31.000,207.067 31.000 L 201.336 31.000 201.293 50.667 L 201.250 70.333 207.458 70.333 L 213.667 70.333 213.667 56.444 L 213.667 42.554 214.111 41.983 C 214.537 41.437,215.703 40.501,215.961 40.499 C 216.028 40.498,216.308 40.375,216.583 40.225 C 217.182 39.898,220.612 39.747,220.956 40.032 C 221.108 40.159,221.167 40.144,221.169 39.979 C 221.171 39.841,221.220 39.816,221.294 39.917 C 221.362 40.008,221.600 40.104,221.825 40.129 C 222.049 40.154,222.371 40.323,222.539 40.504 C 222.708 40.685,222.918 40.833,223.006 40.833 C 223.095 40.833,223.148 40.901,223.125 40.983 C 223.102 41.066,223.145 41.136,223.221 41.139 C 223.691 41.159,224.082 42.099,224.045 43.123 C 224.041 43.237,224.104 43.289,224.185 43.238 C 224.267 43.188,224.332 43.320,224.331 43.532 C 224.329 43.841,224.297 43.868,224.167 43.667 C 224.078 43.529,224.004 43.501,224.003 43.605 C 224.001 43.708,224.112 43.886,224.250 44.000 C 224.499 44.207,224.612 44.756,224.375 44.609 C 224.306 44.567,224.270 50.300,224.294 57.349 C 224.332 68.565,224.368 70.167,224.585 70.167 C 224.803 70.167,224.833 67.779,224.833 50.333 L 224.833 30.500 224.458 30.491 C 224.252 30.486,223.779 30.463,223.407 30.440 C 223.035 30.417,222.530 30.452,222.285 30.517 M181.583 40.478 C 183.634 41.441,184.659 43.319,184.665 46.125 L 184.667 46.667 178.687 46.667 L 172.708 46.667 172.790 45.875 C 173.064 43.238,175.264 40.415,177.312 40.073 C 177.644 40.018,177.992 39.943,178.083 39.906 C 178.583 39.705,180.660 40.045,181.583 40.478 M161.237 41.958 C 161.165 42.210,161.092 42.538,161.077 42.686 C 161.061 42.834,160.988 43.059,160.916 43.186 C 160.813 43.366,160.831 43.374,160.997 43.220 C 161.114 43.112,161.234 42.849,161.264 42.637 C 161.294 42.424,161.368 42.081,161.429 41.875 C 161.489 41.669,161.501 41.500,161.454 41.500 C 161.408 41.500,161.310 41.706,161.237 41.958 M160.144 47.042 C 160.049 47.220,160.090 48.131,160.191 48.069 C 160.261 48.025,160.304 47.767,160.285 47.495 C 160.254 47.053,160.211 46.916,160.144 47.042 M159.905 49.387 C 159.859 49.508,159.843 50.352,159.870 51.262 L 159.919 52.917 160.001 51.041 C 160.082 49.185,160.069 48.959,159.905 49.387 M160.046 54.337 C 160.032 54.522,160.091 54.630,160.177 54.577 C 160.366 54.460,160.386 54.000,160.202 54.000 C 160.130 54.000,160.060 54.152,160.046 54.337 M161.187 59.321 C 161.285 59.602,161.442 59.786,161.534 59.729 C 161.643 59.662,161.634 59.583,161.509 59.506 C 161.403 59.440,161.338 59.290,161.366 59.172 C 161.394 59.055,161.325 58.925,161.213 58.883 C 161.056 58.826,161.050 58.927,161.187 59.321 M161.857 60.674 C 162.050 61.045,162.242 61.313,162.284 61.271 C 162.326 61.230,162.282 61.049,162.186 60.870 C 162.090 60.690,162.043 60.512,162.082 60.474 C 162.120 60.435,162.006 60.313,161.829 60.202 C 161.520 60.010,161.522 60.031,161.857 60.674 " stroke="none" fill="#b26ffc" fill-rule="evenodd"></path><path id="path3" d="M224.375 30.453 L 224.833 30.522 224.833 50.344 C 224.833 67.987,224.805 70.167,224.579 70.167 C 224.354 70.167,224.327 68.702,224.337 57.147 C 224.344 49.986,224.310 44.088,224.262 44.040 C 224.214 43.991,224.172 49.888,224.169 57.143 L 224.163 70.333 230.510 70.333 L 236.857 70.333 236.788 56.458 C 236.716 41.840,236.677 41.051,235.900 38.345 C 235.276 36.172,233.190 33.012,231.899 32.282 C 230.663 31.584,229.480 31.000,229.142 30.923 C 227.243 30.490,226.237 30.348,225.167 30.364 C 224.479 30.375,224.123 30.415,224.375 30.453 M296.471 30.418 C 296.373 30.516,294.824 30.718,294.056 30.733 C 293.673 30.740,293.406 30.816,293.459 30.901 C 293.513 30.988,293.429 31.008,293.269 30.947 C 293.111 30.887,293.023 30.903,293.073 30.983 C 293.122 31.063,293.014 31.168,292.831 31.215 C 292.642 31.265,292.499 31.219,292.497 31.109 C 292.496 31.002,292.424 31.027,292.333 31.167 C 292.244 31.304,292.171 31.351,292.169 31.271 C 292.168 31.191,292.058 31.216,291.925 31.326 C 291.793 31.436,291.439 31.565,291.140 31.612 C 290.840 31.659,290.444 31.803,290.260 31.932 C 290.076 32.061,289.802 32.167,289.650 32.167 C 289.498 32.167,289.281 32.278,289.168 32.415 C 289.055 32.551,288.904 32.627,288.833 32.583 C 288.762 32.540,288.612 32.615,288.498 32.752 C 288.385 32.888,288.219 33.000,288.129 33.000 C 287.987 33.000,287.659 33.233,286.715 34.003 C 286.605 34.093,286.455 34.167,286.382 34.168 C 286.309 34.169,286.073 34.394,285.856 34.668 C 285.640 34.942,285.358 35.167,285.231 35.167 C 285.104 35.167,285.000 35.230,285.000 35.308 C 285.000 35.448,284.905 35.569,283.662 37.000 C 280.469 40.680,278.823 48.791,279.908 55.500 C 280.340 58.166,281.987 62.039,283.246 63.347 C 283.386 63.493,283.501 63.680,283.502 63.764 C 283.502 63.848,283.727 64.094,284.002 64.310 C 284.276 64.527,284.500 64.790,284.500 64.896 C 284.500 65.001,284.706 65.237,284.958 65.419 C 285.210 65.601,285.660 65.995,285.958 66.295 C 286.256 66.594,286.501 66.782,286.503 66.711 C 286.504 66.641,286.560 66.659,286.628 66.751 C 286.695 66.843,287.050 67.139,287.417 67.409 C 287.783 67.678,288.138 67.978,288.206 68.075 C 288.282 68.184,288.330 68.187,288.333 68.083 C 288.336 67.981,288.386 67.985,288.461 68.094 C 288.717 68.465,291.305 69.668,291.390 69.456 C 291.457 69.292,291.476 69.292,291.487 69.456 C 291.494 69.570,291.799 69.710,292.164 69.769 C 292.529 69.827,292.787 69.940,292.738 70.019 C 292.689 70.098,292.766 70.118,292.908 70.064 C 293.050 70.009,293.167 70.029,293.167 70.107 C 293.167 70.186,293.335 70.258,293.542 70.269 C 293.748 70.279,294.217 70.345,294.583 70.416 C 294.950 70.487,295.512 70.549,295.833 70.554 C 296.154 70.559,296.461 70.628,296.516 70.708 C 296.571 70.788,297.171 70.867,297.849 70.885 L 299.083 70.917 299.128 66.208 C 299.157 63.103,299.114 61.500,299.003 61.500 C 298.674 61.500,298.581 61.470,298.371 61.295 C 298.254 61.198,298.110 61.168,298.051 61.227 C 297.992 61.286,297.793 61.203,297.610 61.042 C 297.413 60.870,297.333 60.846,297.414 60.984 C 297.516 61.158,297.491 61.181,297.317 61.072 C 297.189 60.992,296.946 60.905,296.779 60.879 C 296.332 60.809,295.833 60.513,295.833 60.318 C 295.833 60.224,295.766 60.188,295.684 60.239 C 295.602 60.290,295.490 60.215,295.435 60.072 C 295.381 59.929,295.258 59.860,295.164 59.918 C 295.069 59.977,295.012 59.963,295.038 59.887 C 295.063 59.812,295.040 59.750,294.988 59.750 C 294.830 59.750,294.406 59.270,294.288 58.958 C 294.227 58.798,294.044 58.666,293.880 58.664 C 293.654 58.662,293.636 58.628,293.806 58.521 C 293.983 58.408,293.973 58.359,293.753 58.274 C 293.602 58.216,293.522 58.099,293.576 58.013 C 293.629 57.927,293.504 57.739,293.299 57.595 C 293.094 57.451,292.992 57.333,293.072 57.333 C 293.153 57.333,293.075 57.170,292.901 56.971 C 292.700 56.742,292.675 56.661,292.833 56.750 C 293.009 56.849,292.996 56.791,292.788 56.553 C 292.603 56.342,292.536 56.101,292.608 55.913 C 292.693 55.690,292.666 55.647,292.503 55.748 C 292.350 55.843,292.321 55.821,292.411 55.677 C 292.481 55.562,292.440 55.283,292.319 55.057 C 291.969 54.403,292.289 54.339,295.875 54.336 L 299.167 54.333 299.167 50.583 L 299.167 46.833 295.542 46.831 C 293.548 46.829,291.994 46.773,292.089 46.706 C 292.184 46.638,292.256 46.433,292.249 46.250 C 292.242 46.067,292.339 45.742,292.464 45.528 C 292.590 45.315,292.652 45.036,292.603 44.909 C 292.554 44.781,292.591 44.630,292.685 44.572 C 292.779 44.514,292.815 44.359,292.764 44.227 C 292.714 44.095,292.790 43.942,292.933 43.887 C 293.144 43.806,293.152 43.760,292.972 43.646 C 292.826 43.553,292.816 43.504,292.945 43.503 C 293.053 43.501,293.228 43.237,293.334 42.915 C 293.440 42.593,293.595 42.372,293.678 42.424 C 293.761 42.475,293.780 42.389,293.720 42.231 C 293.646 42.039,293.673 41.984,293.803 42.065 C 293.929 42.142,293.962 42.095,293.897 41.927 C 293.836 41.767,293.916 41.627,294.108 41.556 C 294.576 41.385,295.169 40.891,295.050 40.772 C 294.992 40.714,295.069 40.667,295.222 40.667 C 295.375 40.667,295.500 40.583,295.500 40.481 C 295.500 40.376,295.647 40.333,295.836 40.382 C 296.059 40.441,296.229 40.362,296.344 40.147 C 296.446 39.957,296.668 39.836,296.884 39.854 C 297.085 39.871,297.681 39.874,298.208 39.859 L 299.167 39.833 299.167 35.167 L 299.167 30.500 298.708 30.493 C 298.456 30.490,297.864 30.457,297.392 30.421 C 296.920 30.385,296.506 30.383,296.471 30.418 M221.102 30.637 C 221.056 30.712,221.239 30.741,221.509 30.701 C 221.779 30.661,222.000 30.600,222.000 30.564 C 222.000 30.437,221.185 30.503,221.102 30.637 M220.000 30.833 C 219.669 31.047,220.085 31.047,220.583 30.833 L 220.917 30.690 220.583 30.681 C 220.400 30.676,220.137 30.744,220.000 30.833 M201.247 50.583 C 201.247 61.400,201.267 65.800,201.292 60.362 C 201.316 54.924,201.316 46.074,201.292 40.695 C 201.267 35.317,201.247 39.767,201.247 50.583 M243.000 35.833 L 243.000 40.667 251.281 40.667 L 259.562 40.667 259.132 41.125 C 258.895 41.377,258.488 41.891,258.226 42.268 C 257.964 42.644,257.180 43.660,256.482 44.526 C 255.785 45.391,255.035 46.367,254.816 46.695 C 254.433 47.266,253.179 48.944,252.728 49.489 C 252.380 49.908,251.570 50.990,250.597 52.333 C 250.100 53.021,249.555 53.733,249.387 53.917 C 249.220 54.100,248.970 54.411,248.833 54.608 C 248.370 55.274,245.108 59.580,244.813 59.917 C 244.652 60.100,244.028 60.912,243.427 61.721 L 242.333 63.193 242.333 66.763 L 242.333 70.333 259.086 70.333 L 275.838 70.333 275.794 65.542 L 275.750 60.750 266.959 60.667 L 258.168 60.583 261.149 56.583 C 262.789 54.383,264.307 52.363,264.523 52.093 C 264.740 51.823,265.986 50.173,267.294 48.426 C 268.601 46.679,269.820 45.075,270.002 44.861 C 270.184 44.647,270.333 44.431,270.333 44.381 C 270.333 44.331,270.561 44.019,270.840 43.687 C 271.735 42.621,272.790 41.229,273.222 40.544 C 273.453 40.178,273.911 39.587,274.238 39.231 C 274.566 38.875,274.877 38.452,274.928 38.292 C 274.980 38.131,275.092 38.000,275.178 38.000 C 275.269 38.000,275.333 36.554,275.333 34.500 L 275.333 31.000 259.167 31.000 L 243.000 31.000 243.000 35.833 M218.294 31.397 C 218.135 31.518,218.050 31.662,218.106 31.717 C 218.161 31.772,218.316 31.708,218.450 31.574 C 218.584 31.440,218.774 31.380,218.873 31.441 C 218.979 31.506,219.003 31.473,218.933 31.359 C 218.782 31.115,218.655 31.123,218.294 31.397 M213.810 34.625 C 213.430 35.084,213.216 35.470,213.552 35.091 C 213.719 34.904,213.977 34.656,214.126 34.542 C 214.275 34.427,214.319 34.333,214.224 34.333 C 214.129 34.333,213.943 34.465,213.810 34.625 M221.210 40.000 C 221.248 40.137,221.392 40.251,221.531 40.253 C 221.955 40.257,223.008 41.168,223.518 41.971 C 223.946 42.647,224.000 42.684,224.000 42.308 C 224.000 41.898,223.502 41.151,223.221 41.139 C 223.145 41.136,223.102 41.066,223.125 40.983 C 223.148 40.901,223.095 40.833,223.006 40.833 C 222.918 40.833,222.708 40.685,222.539 40.504 C 222.371 40.323,222.049 40.154,221.825 40.129 C 221.600 40.104,221.355 40.008,221.279 39.917 C 221.197 39.817,221.169 39.851,221.210 40.000 M214.181 41.897 L 213.779 42.417 214.255 41.963 C 214.518 41.714,214.699 41.480,214.658 41.444 C 214.617 41.407,214.402 41.611,214.181 41.897 M224.072 43.229 C 224.116 43.492,224.193 43.748,224.243 43.798 C 224.405 43.961,224.333 43.257,224.161 43.000 C 224.035 42.812,224.013 42.870,224.072 43.229 M193.000 60.885 C 193.000 60.914,193.244 61.158,193.542 61.427 L 194.083 61.917 193.594 61.375 C 193.138 60.870,193.000 60.757,193.000 60.885 M299.544 71.120 C 299.797 71.158,300.172 71.157,300.377 71.117 C 300.582 71.078,300.375 71.046,299.917 71.048 C 299.458 71.049,299.291 71.081,299.544 71.120 " stroke="none" fill="#ac63fc" fill-rule="evenodd"></path><path id="path4" d="M298.625 30.441 L 299.167 30.521 299.167 35.169 L 299.167 39.818 299.792 39.991 C 300.135 40.087,300.496 40.165,300.592 40.166 C 300.689 40.166,301.125 40.393,301.561 40.670 C 301.998 40.947,302.426 41.129,302.512 41.076 C 302.598 41.023,302.719 41.115,302.779 41.281 C 302.840 41.447,303.112 41.912,303.384 42.313 C 304.034 43.272,304.333 44.312,304.333 45.610 L 304.333 46.667 298.125 46.705 C 294.045 46.730,293.159 46.760,295.542 46.791 L 299.167 46.840 299.167 50.587 L 299.167 54.333 295.930 54.333 C 292.319 54.333,291.422 54.520,292.331 55.082 C 292.426 55.141,292.454 55.074,292.397 54.925 C 292.308 54.693,293.530 54.667,304.396 54.667 L 316.494 54.667 316.605 54.225 C 317.274 51.559,315.530 39.500,314.475 39.500 C 314.386 39.500,314.355 39.434,314.404 39.353 C 314.454 39.272,314.310 38.933,314.083 38.598 C 313.856 38.264,313.561 37.780,313.428 37.522 C 312.937 36.572,310.798 34.287,309.662 33.499 C 308.022 32.362,307.737 32.189,307.417 32.137 C 307.233 32.107,307.046 32.043,307.000 31.993 C 306.281 31.217,303.265 30.535,300.083 30.428 C 298.983 30.391,298.327 30.396,298.625 30.441 M341.819 30.398 C 341.781 30.434,341.300 30.515,340.750 30.577 C 338.658 30.815,336.071 32.152,334.269 33.925 C 333.571 34.612,333.000 35.082,333.000 34.971 C 333.000 34.860,332.914 33.921,332.809 32.885 L 332.618 31.000 326.809 31.000 L 321.000 31.000 321.000 50.667 L 321.000 70.333 327.250 70.333 L 333.500 70.333 333.500 56.381 L 333.500 42.429 334.421 41.558 C 337.068 39.055,341.845 39.384,343.247 42.167 C 343.979 43.618,344.000 44.051,344.000 57.508 L 344.000 70.333 350.257 70.333 L 356.514 70.333 356.456 55.958 C 356.404 43.157,356.367 41.456,356.116 40.417 C 355.612 38.333,354.819 36.027,354.412 35.465 C 354.193 35.164,353.889 34.697,353.737 34.428 C 352.756 32.698,349.660 30.855,347.170 30.520 C 345.865 30.345,341.971 30.256,341.819 30.398 M376.917 30.513 C 375.526 30.677,373.339 31.318,372.338 31.854 C 372.017 32.026,371.641 32.167,371.502 32.168 C 371.087 32.170,368.176 34.293,367.082 35.392 C 365.480 37.001,363.468 40.316,363.015 42.092 C 362.923 42.454,362.661 43.486,362.432 44.385 C 361.063 49.772,361.659 57.353,363.730 60.901 C 363.949 61.276,364.296 61.883,364.501 62.250 C 365.624 64.263,370.258 68.667,371.252 68.667 C 371.301 68.667,371.957 68.958,372.712 69.315 C 374.674 70.242,376.733 70.719,380.029 71.012 C 384.887 71.442,390.648 70.075,393.856 67.731 C 394.280 67.421,394.679 67.167,394.742 67.167 C 394.941 67.167,396.649 65.445,397.172 64.718 L 397.674 64.019 396.295 62.379 C 395.537 61.477,394.579 60.336,394.167 59.843 C 393.754 59.351,393.135 58.644,392.792 58.273 C 392.448 57.903,392.167 57.540,392.167 57.466 C 392.167 57.175,391.868 57.377,390.821 58.375 C 389.799 59.349,388.145 60.324,386.339 61.016 C 384.385 61.764,379.574 61.209,378.070 60.062 C 377.785 59.844,377.474 59.667,377.379 59.667 C 377.284 59.667,376.996 59.385,376.739 59.042 C 376.482 58.698,376.108 58.247,375.908 58.041 C 375.605 57.728,374.500 55.171,374.500 54.783 C 374.500 54.719,379.950 54.667,386.610 54.667 L 398.720 54.667 398.608 50.042 C 398.486 44.989,398.311 43.752,397.362 41.239 C 397.087 40.512,396.818 39.763,396.763 39.574 C 396.582 38.945,395.296 37.029,394.110 35.620 C 393.239 34.585,390.135 32.167,389.679 32.167 C 389.526 32.167,389.329 32.098,389.242 32.015 C 388.819 31.609,386.556 30.871,384.833 30.578 C 383.776 30.398,378.276 30.353,376.917 30.513 M293.450 30.773 C 293.392 30.831,293.179 30.887,292.977 30.898 C 292.776 30.908,292.580 31.008,292.543 31.121 C 292.464 31.358,293.432 31.078,293.593 30.817 C 293.700 30.644,293.607 30.615,293.450 30.773 M291.167 31.425 L 290.583 31.658 291.147 31.590 C 291.457 31.553,291.791 31.442,291.889 31.344 C 292.122 31.111,291.886 31.138,291.167 31.425 M284.635 35.625 C 284.181 36.153,284.118 36.427,284.564 35.932 C 284.804 35.666,285.000 35.422,285.000 35.391 C 285.000 35.266,284.873 35.347,284.635 35.625 M296.444 39.944 C 296.226 40.163,296.339 40.301,296.667 40.215 C 296.850 40.167,297.000 40.062,297.000 39.981 C 297.000 39.808,296.606 39.783,296.444 39.944 M382.023 40.021 C 384.692 40.593,386.115 42.251,386.281 44.982 L 386.384 46.667 380.429 46.667 L 374.474 46.667 374.589 46.125 C 375.575 41.500,378.339 39.231,382.023 40.021 M295.792 40.282 C 295.631 40.323,295.500 40.422,295.500 40.500 C 295.500 40.578,295.369 40.668,295.208 40.700 C 295.036 40.734,294.989 40.803,295.093 40.869 C 295.190 40.930,295.490 40.800,295.760 40.579 C 296.029 40.359,296.212 40.185,296.167 40.192 C 296.121 40.199,295.952 40.240,295.792 40.282 M294.667 41.250 C 294.553 41.387,294.352 41.500,294.220 41.500 C 294.089 41.500,293.786 41.931,293.547 42.458 C 293.307 42.985,293.030 43.472,292.931 43.539 C 292.817 43.616,292.849 43.663,293.015 43.664 C 293.181 43.666,293.355 43.417,293.480 43.000 C 293.590 42.633,293.765 42.333,293.868 42.333 C 293.971 42.333,294.013 42.290,293.960 42.238 C 293.908 42.185,294.139 41.887,294.474 41.576 C 294.809 41.264,295.036 41.007,294.979 41.005 C 294.921 41.002,294.781 41.112,294.667 41.250 M292.500 56.157 C 292.500 56.243,292.576 56.361,292.669 56.418 C 292.763 56.476,292.801 56.584,292.755 56.659 C 292.708 56.734,292.781 56.888,292.917 57.000 C 293.052 57.112,293.127 57.263,293.082 57.335 C 293.038 57.406,293.114 57.508,293.251 57.561 C 293.577 57.686,293.568 57.632,293.125 56.753 C 292.774 56.057,292.500 55.796,292.500 56.157 M309.440 57.584 C 309.294 57.730,309.079 57.977,308.962 58.133 C 308.681 58.508,307.358 59.542,306.833 59.796 C 306.604 59.907,306.304 60.074,306.167 60.167 C 304.954 60.990,302.489 61.418,299.850 61.264 C 298.639 61.193,297.801 61.318,298.681 61.438 C 298.765 61.449,298.908 61.468,299.000 61.479 C 299.220 61.507,299.228 70.706,299.008 70.925 C 298.810 71.123,301.842 71.063,303.250 70.842 C 304.935 70.577,306.230 70.303,306.667 70.120 C 306.896 70.024,307.225 69.919,307.397 69.887 C 307.570 69.855,308.095 69.634,308.564 69.395 C 309.033 69.157,309.610 68.904,309.846 68.834 C 310.542 68.627,313.133 66.866,313.529 66.330 C 313.729 66.059,314.013 65.799,314.159 65.752 C 314.489 65.648,315.333 64.370,315.333 63.975 C 315.333 63.815,314.958 63.286,314.499 62.800 C 314.039 62.314,313.622 61.785,313.571 61.625 C 313.519 61.465,313.422 61.333,313.355 61.333 C 313.288 61.333,312.646 60.621,311.930 59.750 C 311.213 58.879,310.579 58.167,310.520 58.167 C 310.461 58.167,310.338 58.003,310.248 57.802 C 310.033 57.327,309.768 57.255,309.440 57.584 M293.740 58.241 C 293.978 58.432,294.000 58.503,293.824 58.511 C 293.691 58.516,293.752 58.589,293.958 58.672 C 294.165 58.755,294.333 58.905,294.333 59.007 C 294.333 59.261,294.794 59.699,294.893 59.539 C 294.937 59.467,294.792 59.233,294.570 59.020 C 294.348 58.806,294.167 58.567,294.167 58.488 C 294.167 58.410,293.998 58.263,293.792 58.163 C 293.432 57.989,293.430 57.992,293.740 58.241 M295.067 59.859 C 294.993 59.979,295.022 60.006,295.142 59.932 C 295.250 59.865,295.380 59.927,295.435 60.072 C 295.490 60.215,295.602 60.290,295.684 60.239 C 295.766 60.188,295.833 60.224,295.833 60.318 C 295.833 60.513,296.332 60.809,296.779 60.879 C 296.946 60.905,297.196 60.995,297.333 61.078 C 297.549 61.210,297.552 61.192,297.355 60.949 C 297.229 60.794,297.055 60.667,296.968 60.667 C 296.881 60.667,296.483 60.442,296.083 60.167 C 295.263 59.603,295.232 59.593,295.067 59.859 M285.828 66.301 C 286.034 66.604,286.240 66.816,286.285 66.771 C 286.330 66.725,286.161 66.477,285.910 66.219 L 285.453 65.750 285.828 66.301 M291.336 69.456 C 291.333 69.672,292.489 70.233,292.635 70.087 C 292.681 70.041,292.820 70.086,292.943 70.189 C 293.105 70.323,293.167 70.323,293.167 70.190 C 293.167 70.089,292.960 69.960,292.708 69.904 C 291.807 69.704,291.582 69.619,291.461 69.436 C 291.374 69.305,291.338 69.311,291.336 69.456 M295.618 70.700 C 295.500 70.775,295.641 70.829,295.958 70.831 C 296.256 70.832,296.500 70.763,296.500 70.677 C 296.500 70.496,295.915 70.512,295.618 70.700 " stroke="none" fill="#9e51fc" fill-rule="evenodd"></path></g></svg>